<svg width="21" height="20" viewBox="0 0 21 20" fill="none" xmlns="http://www.w3.org/2000/svg">
<path d="M10.6667 2.5C14.7917 2.5 18.1667 5.875 18.1667 10C18.1667 14.125 14.7917 17.5 10.6667 17.5C6.54166 17.5 3.16666 14.125 3.16666 10C3.16666 5.875 6.54166 2.5 10.6667 2.5ZM10.6667 1.25C5.85416 1.25 1.91666 5.1875 1.91666 10C1.91666 14.8125 5.85416 18.75 10.6667 18.75C15.4792 18.75 19.4167 14.8125 19.4167 10C19.4167 5.1875 15.4792 1.25 10.6667 1.25Z" fill="white"/>
<path d="M15.6667 9.375H11.2917V5H10.0417V9.375H5.66666V10.625H10.0417V15H11.2917V10.625H15.6667V9.375Z" fill="white"/>
</svg>
